<?xml version="1.0" encoding="utf-8"?>
<!-- Generator: Adobe Illustrator 24.0.2, SVG Export Plug-In . SVG Version: 6.00 Build 0)  -->
<svg version="1.1" id="Camada_1" xmlns="http://www.w3.org/2000/svg" xmlns:xlink="http://www.w3.org/1999/xlink" x="0px" y="0px"
	 viewBox="0 0 16 20" style="enable-background:new 0 0 16 20;" xml:space="preserve">
<style type="text/css">
	.st0{fill:#FFFFFF;}
</style>
<path class="st0" d="M13.5,8H12V5c0-0.6-0.4-1-1-1H8V2.5C8,1.7,7.3,1,6.5,1S5,1.7,5,2.5V4H2C1.4,4,1,4.4,1,5v3h1.5
	C3.3,8,4,8.7,4,9.5S3.3,11,2.5,11H1v3c0,0.6,0.4,1,1,1h3v-1.5C5,12.7,5.7,12,6.5,12S8,12.7,8,13.5V15h3c0.6,0,1-0.4,1-1v-3h1.5
	c0.8,0,1.5-0.7,1.5-1.5S14.3,8,13.5,8z"/>
</svg>
