<?xml version="1.0" encoding="utf-8"?>
<!-- Generator: Adobe Illustrator 24.0.2, SVG Export Plug-In . SVG Version: 6.00 Build 0)  -->
<svg version="1.1" id="Camada_1" xmlns="http://www.w3.org/2000/svg" xmlns:xlink="http://www.w3.org/1999/xlink" x="0px" y="0px"
	 viewBox="0 0 24 24" style="enable-background:new 0 0 24 24;" xml:space="preserve">
<style type="text/css">
	.st0{fill:#FFFFFF;}
</style>
<path class="st0" d="M7,5h10v2h2V3c0-1.1-0.9-2-2-2L7,1C5.9,1,5,1.9,5,3v4h2V5z M15.4,16.6L20,12l-4.6-4.6L14,8.8l3.2,3.2L14,15.2
	L15.4,16.6z M10,15.2L6.8,12L10,8.8L8.6,7.4L4,12l4.6,4.6L10,15.2z M17,19H7v-2H5v4c0,1.1,0.9,2,2,2h10c1.1,0,2-0.9,2-2v-4h-2V19z"
	/>
</svg>
