<?xml version="1.0" encoding="utf-8"?>
<!-- Generator: Adobe Illustrator 24.0.2, SVG Export Plug-In . SVG Version: 6.00 Build 0)  -->
<svg version="1.1" id="Camada_1" xmlns="http://www.w3.org/2000/svg" xmlns:xlink="http://www.w3.org/1999/xlink" x="0px" y="0px"
	 viewBox="0 0 48 41.1" style="enable-background:new 0 0 48 41.1;" xml:space="preserve">
<style type="text/css">
	.st0{fill:#FFFFFF;}
</style>
<title>business 9 copy</title>
<g>
	<path class="st0" d="M40,4.2h-3.2c-0.5-1.6-2.3-2.4-3.8-1.8c-0.9,0.3-1.5,1-1.8,1.8H28c-0.6,0-1,0.4-1,1v4c0,0.6,0.4,1,1,1
		s1,0.4,1,1s-0.4,1-1,1s-1,0.4-1,1v4c0,0.6,0.4,1,1,1h3.2c0.5,1.6,2.3,2.4,3.8,1.8c0.9-0.3,1.5-1,1.8-1.8H40c0.6,0,1-0.4,1-1v-12
		C41,4.6,40.6,4.2,40,4.2z M39,16.2h-3c-0.6,0-1,0.4-1,1s-0.4,1-1,1s-1-0.4-1-1s-0.4-1-1-1h-3V14c1.6-0.5,2.4-2.3,1.8-3.8
		c-0.3-0.9-1-1.5-1.8-1.8V6.2h3c0.6,0,1-0.4,1-1s0.4-1,1-1s1,0.4,1,1s0.4,1,1,1h3V16.2z"/>
	<path class="st0" d="M35,26.3v-3.2c0-0.6-0.4-1-1-1h-4c-0.6,0-1,0.4-1,1s-0.4,1-1,1s-1-0.4-1-1s-0.4-1-1-1h-4c-0.6,0-1,0.4-1,1v3.2
		c-1.6,0.5-2.4,2.3-1.8,3.8c0.3,0.9,1,1.5,1.8,1.8v3.2c0,0.6,0.4,1,1,1h12c0.6,0,1-0.4,1-1V32c1.6-0.5,2.4-2.3,1.8-3.8
		C36.5,27.3,35.9,26.6,35,26.3z M34,30.2c-0.6,0-1,0.4-1,1v3H23v-3c0-0.6-0.4-1-1-1s-1-0.4-1-1s0.4-1,1-1s1-0.4,1-1v-3h2.2
		c0.5,1.6,2.3,2.4,3.8,1.8c0.9-0.3,1.5-1,1.8-1.8H33v3c0,0.6,0.4,1,1,1s1,0.4,1,1S34.6,30.2,34,30.2z"/>
	<path class="st0" d="M22,22.2h-3.2c-0.5-1.6-2.3-2.4-3.8-1.8c-0.9,0.3-1.5,1-1.8,1.8H10c-0.6,0-1,0.4-1,1v12c0,0.6,0.4,1,1,1h3.2
		c0.5,1.6,2.3,2.4,3.8,1.8c0.9-0.3,1.5-1,1.8-1.8H22c0.6,0,1-0.4,1-1v-4c0-0.6-0.4-1-1-1s-1-0.4-1-1s0.4-1,1-1s1-0.4,1-1v-4
		C23,22.6,22.6,22.2,22,22.2z M21,26.3c-1.6,0.5-2.4,2.3-1.8,3.8c0.3,0.9,1,1.5,1.8,1.8v2.2h-3c-0.6,0-1,0.4-1,1s-0.4,1-1,1
		c-0.6,0-1-0.4-1-1s-0.4-1-1-1h-3v-10h3c0.6,0,1-0.4,1-1s0.4-1,1-1c0.6,0,1,0.4,1,1s0.4,1,1,1h3V26.3z"/>
	<path class="st0" d="M23,14.3v-3.2c0-0.6-0.4-1-1-1H10c-0.6,0-1,0.4-1,1v3.2c-1.6,0.5-2.4,2.3-1.8,3.8C7.5,19,8.1,19.7,9,20v3.2
		c0,0.6,0.4,1,1,1h4c0.6,0,1-0.4,1-1s0.4-1,1-1c0.6,0,1,0.4,1,1s0.4,1,1,1h4c0.6,0,1-0.4,1-1V20c1.6-0.5,2.4-2.3,1.8-3.8
		C24.5,15.3,23.9,14.6,23,14.3z M22,18.2c-0.6,0-1,0.4-1,1v3h-2.2c-0.5-1.6-2.3-2.4-3.8-1.8c-0.9,0.3-1.5,1-1.8,1.8H11v-3
		c0-0.6-0.4-1-1-1s-1-0.4-1-1s0.4-1,1-1s1-0.4,1-1v-3h10v3c0,0.6,0.4,1,1,1s1,0.4,1,1S22.6,18.2,22,18.2z"/>
</g>
</svg>
