<?xml version="1.0" encoding="utf-8"?>
<!-- Generator: Adobe Illustrator 24.0.2, SVG Export Plug-In . SVG Version: 6.00 Build 0)  -->
<svg version="1.1" id="Camada_1" xmlns="http://www.w3.org/2000/svg" xmlns:xlink="http://www.w3.org/1999/xlink" x="0px" y="0px"
	 viewBox="0 0 100 92" style="enable-background:new 0 0 100 92;" xml:space="preserve">
<style type="text/css">
	.st0{fill:#FFFFFF;}
</style>
<path class="st0" d="M94,39.1L51.3,54.3c-0.6,0.2-1.2,0.2-1.7,0L6.8,39.1c-2.3-0.8-2.3-4,0-4.8L49.5,19c0.6-0.2,1.2-0.2,1.7,0
	L94,34.3C96.2,35.1,96.2,38.3,94,39.1z M90.9,56.5V45.6l-5.1,1.8v9.3c-1,0.8-1.7,2.1-1.7,3.5c0,2.5,2,4.4,4.4,4.4s4.4-2,4.4-4.4
	C92.9,58.6,92.1,57.2,90.9,56.5z M50.4,59.6c-0.9,0-1.8-0.1-2.6-0.4l-27.5-9.8v21.3c17.9,13,42.2,13,60.1,0l0,0V49.3L53,59.1
	C52.1,59.4,51.3,59.6,50.4,59.6z"/>
</svg>
