<svg id="Camada_1" data-name="Camada 1" xmlns="http://www.w3.org/2000/svg" viewBox="0 0 200 67.95"><defs><style>.cls-1,.cls-2{fill:#fff;}.cls-1{fill-rule:evenodd;}</style></defs><title>logo_ufmt_negativo</title><path class="cls-1" d="M31.41,37a3.2,3.2,0,1,0-3.2-3.19A3.19,3.19,0,0,0,31.41,37m0,3.79a7,7,0,1,0-7-7A7,7,0,0,0,31.41,40.77Z"/><path class="cls-1" d="M19.78,22.15H43V45.42H19.78Zm11.63,0A11.64,11.64,0,1,1,19.78,33.79,11.64,11.64,0,0,1,31.41,22.15Z"/><path class="cls-1" d="M15.12,20.63a20.93,20.93,0,0,0,0,26.31ZM44.57,17.5a20.95,20.95,0,0,0-26.32,0ZM47.7,46.94a20.93,20.93,0,0,0,0-26.31ZM31.41,54.73a20.87,20.87,0,0,0,13.16-4.66H18.25A20.85,20.85,0,0,0,31.41,54.73Z"/><path class="cls-1" d="M31.41,3.54A30.25,30.25,0,1,1,1.16,33.79,30.25,30.25,0,0,1,31.41,3.54m0,4.65A25.6,25.6,0,1,1,5.82,33.79,25.6,25.6,0,0,1,31.41,8.19Z"/><path class="cls-2" d="M68.69,17.25H78.77V36.6a5.39,5.39,0,0,0,1.12,3.83,5.12,5.12,0,0,0,3.74,1.14,5,5,0,0,0,3.66-1.12,5.43,5.43,0,0,0,1.1-3.85V17.25H98.47V37.39q0,5.91-3.8,9t-11,3.11q-7.26,0-11.1-3.12t-3.84-9Z"/><path class="cls-2" d="M104.35,48.65V17.25H128.1v7.91H114.44V30h10.87v7.59H114.44v11Z"/><path class="cls-2" d="M141.06,48.65h-9.12V17.25h12.28l4.34,15.67c.06.21.18.7.35,1.46s.41,1.8.72,3.14c.2-1.05.38-2,.55-2.76s.32-1.38.45-1.78l4.46-15.73h12.25v31.4h-9.12l.09-15.46c0-.94,0-1.85,0-2.74s0-1.8,0-2.76q-.51,2.43-1.24,5.31l-.06.28-3.88,15.37h-7l-3.92-15c-.18-.68-.37-1.46-.55-2.35s-.43-2.07-.73-3.58c0,1.35.08,2.51.1,3.48s0,1.74,0,2.32Z"/><path class="cls-2" d="M179.88,48.65V25.52h-9V17.25H199v8.27h-9V48.65Z"/></svg>