<?xml version="1.0" encoding="utf-8"?>
<!-- Generator: Adobe Illustrator 24.0.2, SVG Export Plug-In . SVG Version: 6.00 Build 0)  -->
<svg version="1.1" id="Camada_1" xmlns="http://www.w3.org/2000/svg" xmlns:xlink="http://www.w3.org/1999/xlink" x="0px" y="0px"
	 viewBox="0 0 32 33" style="enable-background:new 0 0 32 33;" xml:space="preserve">
<style type="text/css">
	.st0{fill:#FFFFFF;}
</style>
<path class="st0" d="M16.8,11.4c-0.7-0.4-1.9-1.1-2.7-1.5L13,9.2c-0.7-0.4-1.3-0.1-1.3,0.8v1.3c0,0.9,0,2.2,0,3.1v1.3
	c0,0.9,0.6,1.2,1.3,0.8l1.1-0.6c0.7-0.4,1.9-1.1,2.7-1.5l1.1-0.6c0.7-0.4,0.7-1.1,0-1.5L16.8,11.4z"/>
<path class="st0" d="M17.9,19.5h-12V6.1h16.8v12c0.1,0,0.3-0.1,0.4-0.1c0.8-0.2,1.8-0.5,2.9-0.5c0.1,0,0.3,0,0.4,0V7.9
	c0-2.1-1.7-3.8-3.8-3.8H5.9c-2.1,0-3.8,1.7-3.8,3.8v9.8c0,2.1,1.7,3.8,3.8,3.8h12.8L17.9,19.5z M24.4,11.8c0.6,0,1,0.4,1,1
	c0,0.6-0.4,1-1,1s-1-0.4-1-1C23.4,12.3,23.9,11.8,24.4,11.8z"/>
<path class="st0" d="M27.8,19.1c-1.3-0.9-3.2-0.4-4.4,0c-0.2,0.1-0.4,0.1-0.5,0.1c-0.3,0.1-0.5,0.1-0.7,0.2c0,0-0.1,0-0.1,0
	l-2.2-3.6c-0.2-0.5-0.9-0.8-1.4-0.5c-0.5,0.2-0.7,0.8-0.5,1.4l3.1,7.3c-0.2,0-0.6-0.1-0.9-0.1c-1.2-0.1-2.1-0.2-2.6,0
	c-0.4,0.2-0.9,0.8-0.7,1.3c0.1,0.4,0.7,0.6,2.8,1.2l0.4,0.1c0.4,0.1,0.8,0.3,1.2,0.5c1.5,0.7,3.3,1.5,6.1,0.2l0,0
	c1.2-0.6,2-1.4,2.3-2.5C30.3,22.4,28.6,19.7,27.8,19.1z"/>
</svg>
