<?xml version="1.0" encoding="utf-8"?>
<!-- Generator: Adobe Illustrator 24.0.2, SVG Export Plug-In . SVG Version: 6.00 Build 0)  -->
<svg version="1.1" id="Camada_1" xmlns="http://www.w3.org/2000/svg" xmlns:xlink="http://www.w3.org/1999/xlink" x="0px" y="0px"
	 viewBox="0 0 512 512" style="enable-background:new 0 0 512 512;" xml:space="preserve">
<style type="text/css">
	.st0{fill:#FFFFFF;}
</style>
<path class="st0" d="M376,64v42.7h-40V64H176v42.7h-40V64H96v384h40v-42.7h40V448h160v-42.7h40V448h40V64H376z M176,362.7h-40V320
	h40V362.7z M176,277.3h-40v-42.7h40V277.3z M176,192h-40v-42.7h40V192z M376,362.7h-40V320h40V362.7z M376,277.3h-40v-42.7h40V277.3
	z M376,192h-40v-42.7h40V192z"/>
</svg>
