<?xml version="1.0" encoding="utf-8"?>
<!-- Generator: Adobe Illustrator 24.0.2, SVG Export Plug-In . SVG Version: 6.00 Build 0)  -->
<svg version="1.1" id="Camada_1" xmlns="http://www.w3.org/2000/svg" xmlns:xlink="http://www.w3.org/1999/xlink" x="0px" y="0px"
	 viewBox="0 0 32 34.3" style="enable-background:new 0 0 32 34.3;" xml:space="preserve">
<style type="text/css">
	.st0{fill:#FFFFFF;}
</style>
<path class="st0" d="M8.6,7.2h0.4c0.5,0,0.9-0.4,0.9-0.9V2.9C9.9,2.4,9.5,2,9.1,2H8.6C8.1,2,7.8,2.4,7.8,2.9v3.5
	C7.8,6.8,8.1,7.2,8.6,7.2z"/>
<path class="st0" d="M20.6,7.2H21c0.5,0,0.9-0.4,0.9-0.9V2.9C21.9,2.4,21.5,2,21,2h-0.4c-0.5,0-0.9,0.4-0.9,0.9v3.5
	C19.7,6.8,20.1,7.2,20.6,7.2z"/>
<path class="st0" d="M12.4,11.6c0-0.2-0.2-0.4-0.4-0.4H9.7c-0.2,0-0.4,0.2-0.4,0.4v1.7c0,0.2,0.2,0.4,0.4,0.4H12
	c0.2,0,0.4-0.2,0.4-0.4L12.4,11.6L12.4,11.6z"/>
<path class="st0" d="M16.3,11.6c0-0.2-0.2-0.4-0.4-0.4h-2.2c-0.2,0-0.4,0.2-0.4,0.4v1.7c0,0.2,0.2,0.4,0.4,0.4h2.2
	c0.2,0,0.4-0.2,0.4-0.4V11.6z"/>
<path class="st0" d="M17.7,13.6h2.2c0.2,0,0.4-0.2,0.4-0.4v-1.7c0-0.2-0.2-0.4-0.4-0.4h-2.2c-0.2,0-0.4,0.2-0.4,0.4v1.7
	C17.3,13.5,17.5,13.6,17.7,13.6z"/>
<path class="st0" d="M21.6,13.6h2.2c0.2,0,0.4-0.2,0.4-0.4v-1.7c0-0.2-0.2-0.4-0.4-0.4h-2.2c-0.2,0-0.4,0.2-0.4,0.4v1.7
	C21.3,13.5,21.4,13.6,21.6,13.6z"/>
<path class="st0" d="M8.4,15c0-0.2-0.2-0.4-0.4-0.4H5.8c-0.2,0-0.4,0.2-0.4,0.4v1.7c0,0.2,0.2,0.4,0.4,0.4H8c0.2,0,0.4-0.2,0.4-0.4
	C8.4,16.7,8.4,15,8.4,15z"/>
<path class="st0" d="M12.4,15c0-0.2-0.2-0.4-0.4-0.4H9.7c-0.2,0-0.4,0.2-0.4,0.4v1.7c0,0.2,0.2,0.4,0.4,0.4H12
	c0.2,0,0.4-0.2,0.4-0.4L12.4,15L12.4,15z"/>
<path class="st0" d="M16.3,15c0-0.2-0.2-0.4-0.4-0.4h-2.2c-0.2,0-0.4,0.2-0.4,0.4v1.7c0,0.2,0.2,0.4,0.4,0.4h2.2
	c0.2,0,0.4-0.2,0.4-0.4V15z"/>
<path class="st0" d="M17.3,16.7c0,0.2,0.2,0.4,0.4,0.4h2.2c0.2,0,0.4-0.2,0.4-0.4V15c0-0.2-0.2-0.4-0.4-0.4h-2.2
	c-0.2,0-0.4,0.2-0.4,0.4V16.7z"/>
<path class="st0" d="M21.3,16.7c0,0.2,0.2,0.4,0.4,0.4h2.2c0.2,0,0.4-0.2,0.4-0.4V15c0-0.2-0.2-0.4-0.4-0.4h-2.2
	c-0.2,0-0.4,0.2-0.4,0.4V16.7z"/>
<path class="st0" d="M8.4,18.5c0-0.2-0.2-0.4-0.4-0.4H5.8c-0.2,0-0.4,0.2-0.4,0.4v1.7c0,0.2,0.2,0.4,0.4,0.4H8
	c0.2,0,0.4-0.2,0.4-0.4C8.4,20.1,8.4,18.5,8.4,18.5z"/>
<path class="st0" d="M12.4,18.5c0-0.2-0.2-0.4-0.4-0.4H9.7c-0.2,0-0.4,0.2-0.4,0.4v1.7c0,0.2,0.2,0.4,0.4,0.4H12
	c0.2,0,0.4-0.2,0.4-0.4L12.4,18.5L12.4,18.5z"/>
<path class="st0" d="M16.3,18.5c0-0.2-0.2-0.4-0.4-0.4h-2.2c-0.2,0-0.4,0.2-0.4,0.4v1.7c0,0.2,0.2,0.4,0.4,0.4h2.2
	c0.2,0,0.4-0.2,0.4-0.4V18.5z"/>
<path class="st0" d="M8,21.5H5.8c-0.2,0-0.4,0.2-0.4,0.4v1.7c0,0.2,0.2,0.4,0.4,0.4H8c0.2,0,0.4-0.2,0.4-0.4v-1.7
	C8.4,21.7,8.2,21.5,8,21.5z"/>
<path class="st0" d="M12,21.5H9.7c-0.2,0-0.4,0.2-0.4,0.4v1.7c0,0.2,0.2,0.4,0.4,0.4H12c0.2,0,0.4-0.2,0.4-0.4v-1.7
	C12.4,21.7,12.2,21.5,12,21.5z"/>
<path class="st0" d="M15.9,21.5h-2.2c-0.2,0-0.4,0.2-0.4,0.4v1.7c0,0.2,0.2,0.4,0.4,0.4h2.2c0.2,0,0.4-0.2,0.4-0.4v-1.7
	C16.3,21.7,16.1,21.5,15.9,21.5z"/>
<path class="st0" d="M3.4,26.9h14c-0.2-0.5-0.4-1-0.5-1.6h-13V9.8h21.8v7.6c0.6,0.2,1.1,0.4,1.6,0.7V5.4c0-0.6-0.5-1-1-1h-3.8v2
	c0,0.8-0.7,1.5-1.5,1.5h-0.4c-0.8,0-1.5-0.7-1.5-1.5v-2h-8.6v2c0,0.8-0.7,1.5-1.5,1.5H8.6c-0.8,0-1.5-0.7-1.5-1.5v-2H3.4
	c-0.6,0-1,0.5-1,1v20.5C2.3,26.5,2.8,26.9,3.4,26.9z"/>
<path class="st0" d="M17.6,24c0,3.3,2.7,6,6,6s6-2.7,6-6s-2.7-6-6-6S17.6,20.6,17.6,24z M28.4,24c0,2.6-2.2,4.8-4.8,4.8
	s-4.8-2.2-4.8-4.8s2.2-4.8,4.8-4.8S28.4,21.3,28.4,24z"/>
<path class="st0" d="M23.4,20.6c-0.1,0.3-0.7,1.6-0.7,1.6c0,0.1-0.1,0.1-0.2,0.1c0,0-1.4,0.2-1.8,0.2c-0.3,0-0.4,0.3-0.2,0.5
	c0.3,0.2,1.3,1.2,1.3,1.2c0.1,0,0.1,0.1,0.1,0.2c0,0-0.3,1.4-0.4,1.7c-0.1,0.3,0.1,0.5,0.4,0.3c0.3-0.2,1.5-0.9,1.5-0.9
	c0.1,0,0.2,0,0.2,0c0,0,1.2,0.7,1.5,0.9c0.3,0.2,0.5,0,0.4-0.3c-0.1-0.3-0.4-1.7-0.4-1.7c0-0.1,0-0.2,0.1-0.2c0,0,1.1-1,1.3-1.2
	c0.3-0.2,0.2-0.5-0.2-0.5c-0.3,0-1.8-0.2-1.8-0.2c-0.1,0-0.1-0.1-0.2-0.1c0,0-0.6-1.3-0.7-1.6C23.7,20.3,23.5,20.3,23.4,20.6z"/>
</svg>
