<?xml version="1.0" encoding="utf-8"?>
<!-- Generator: Adobe Illustrator 24.0.2, SVG Export Plug-In . SVG Version: 6.00 Build 0)  -->
<svg version="1.1" id="Camada_1" xmlns="http://www.w3.org/2000/svg" xmlns:xlink="http://www.w3.org/1999/xlink" x="0px" y="0px"
	 viewBox="0 0 100 107" style="enable-background:new 0 0 100 107;" xml:space="preserve">
<style type="text/css">
	.st0{fill:#FFFFFF;}
</style>
<path class="st0" d="M87.1,37.7C86.2,20.5,72,6.6,54.7,6.1C35.9,5.6,20.5,20.7,20.5,39.5c0,0.5,0,1,0,1.5l0,0c0,0-2.9,10.8-6.8,16.8
	c-3.8,6,6.8,6.6,6.8,6.6S20.3,79.8,37,82.2v11.7l39.7-8.1c0,0-0.9-13.8,0-18.4c0.4-2.1,2.3-5.8,3.7-7.7l0,0
	C84.9,53.7,87.5,46,87.1,37.7z M54,66.3c-4.6,0-8.9-1.1-12.7-3.2l-12.7,9.4l5-15.5c-4-4.7-6.5-10.8-6.5-17.5
	c0-14.8,12-26.9,26.9-26.9s26.9,12,26.9,26.9C80.9,54.3,68.8,66.3,54,66.3z"/>
<path class="st0" d="M69.8,41.7v-14c0-0.5-0.2-0.9-0.6-1.3C68.8,26.1,68.4,26,68,26h-0.2c-0.7,0.1-1.4,0.1-2.1,0.1
	c-6.3,0-10.4-3.9-10.5-4c-0.3-0.3-0.8-0.5-1.2-0.5s-0.9,0.2-1.2,0.5c0,0-4.1,4-10.5,4c-0.7,0-1.4,0-2.1-0.1H40
	c-0.4,0-0.8,0.1-1.2,0.4c-0.4,0.4-0.6,0.8-0.6,1.3v13.9c0,0.8-0.1,5.8,4.7,10.9c0.4,0.4,0.9,0.9,1.4,1.4c2.2,1.9,5.1,3.8,9,5.4
	c0.2,0.1,0.4,0.1,0.7,0.1s0.4,0,0.7-0.1c3.9-1.6,6.8-3.5,8.9-5.4c1-0.9,1.9-1.8,2.6-2.7C69.9,46.7,69.8,42.4,69.8,41.7z"/>
</svg>
