<?xml version="1.0" encoding="utf-8"?>
<!-- Generator: Adobe Illustrator 24.0.2, SVG Export Plug-In . SVG Version: 6.00 Build 0)  -->
<svg version="1.1" id="Camada_1" xmlns="http://www.w3.org/2000/svg" xmlns:xlink="http://www.w3.org/1999/xlink" x="0px" y="0px"
	 viewBox="0 0 846.7 863.6" style="enable-background:new 0 0 846.7 863.6;" xml:space="preserve">
<style type="text/css">
	.st0{fill-rule:evenodd;clip-rule:evenodd;fill:#FFFFFF;}
</style>
<g>
	<path class="st0" d="M45.3,24.7h736.2v394.2c-25.1-20.6-56.3-34.1-90.4-37.5V115.1H135.7v441.2h369.5c1.3,33.5,12.3,64.6,30.3,90.4
		H45.3L45.3,24.7L45.3,24.7z M674.3,422.7c70.2,0,127,56.9,127,127c0,40.2-18.7,76-47.8,99.3V822l-79.2-67.3L595.1,822V649.1
		c-29.2-23.3-47.8-59.1-47.8-99.3C547.3,479.6,604.1,422.7,674.3,422.7L674.3,422.7z M674.3,496.6c29.3,0,53.1,23.8,53.1,53.1
		s-23.8,53.1-53.1,53.1c-29.3,0-53.1-23.8-53.1-53.1C621.2,520.4,645,496.6,674.3,496.6z M174.2,153.6h478.4v228.3
		c-72.6,9.3-130.9,64.6-144.5,135.8H174.2V153.6L174.2,153.6z M281,320h264.8v40.1H281L281,320L281,320z M239,226.8h348.8v40.1H239
		L239,226.8L239,226.8z"/>
</g>
</svg>
