<?xml version="1.0" encoding="utf-8"?>
<!-- Generator: Adobe Illustrator 24.0.2, SVG Export Plug-In . SVG Version: 6.00 Build 0)  -->
<svg version="1.1" id="Camada_1" xmlns="http://www.w3.org/2000/svg" xmlns:xlink="http://www.w3.org/1999/xlink" x="0px" y="0px"
	 viewBox="0 0 100 105" style="enable-background:new 0 0 100 105;" xml:space="preserve">
<style type="text/css">
	.st0{fill:#FFFFFF;}
</style>
<title>Artboard 8</title>
<path class="st0" d="M33.1,1h56c3.1,0,5.6,2.5,5.6,5.6c0,0,0,0,0,0v53.7c0,3.1-2.5,5.6-5.6,5.6h0H38.5v-8h48.2V9H37.1
	C36.6,6,35.2,3.2,33.1,1z M21.9,21.1c5.2,0,9.5-4.3,9.5-9.5s-4.3-9.5-9.5-9.5s-9.5,4.3-9.5,9.5S16.6,21.1,21.9,21.1z M5.3,32v18.3
	c0,3.5,2.5,6.5,5.9,7.2v37c-0.2,2.5,1.7,4.6,4.2,4.8s4.6-1.7,4.8-4.2c0-0.2,0-0.4,0-0.6V68.2c0-0.8,0.6-1.6,1.4-1.7
	c0.9-0.2,1.8,0.4,1.9,1.3c0,0.1,0,0.2,0,0.3v26.4c-0.2,2.5,1.7,4.6,4.2,4.8s4.6-1.7,4.8-4.2c0-0.2,0-0.4,0-0.6V35.7l8.5,7
	c1.5,1.3,3.8,1.3,5.3,0.1l12.5-9.8c1.8-1.3,2.3-3.7,1.2-5.7c-1.2-2-3.8-2.6-5.8-1.4c-0.1,0.1-0.3,0.2-0.4,0.3l-10,7.8l-10-8.3
	c-0.8-0.6-1.7-1-2.7-1H12.6C8.6,24.6,5.3,27.9,5.3,32C5.3,32,5.3,32,5.3,32z"/>
</svg>
