<?xml version="1.0" standalone="no"?>
<!DOCTYPE svg PUBLIC "-//W3C//DTD SVG 20010904//EN"
 "http://www.w3.org/TR/2001/REC-SVG-20010904/DTD/svg10.dtd">
<svg version="1.0" xmlns="http://www.w3.org/2000/svg"
 width="244.000000pt" height="244.000000pt" viewBox="0 0 244.000000 244.000000"
 preserveAspectRatio="xMidYMid meet">
<metadata>
Created by potrace 1.11, written by Peter Selinger 2001-2013
</metadata>
<g transform="translate(0.000000,244.000000) scale(0.100000,-0.100000)"
fill="#000000" stroke="none">
<path d="M1065 2429 c-113 -17 -134 -22 -235 -55 -418 -139 -723 -490 -811
-934 -22 -114 -20 -352 5 -465 98 -437 401 -777 816 -914 133 -44 249 -59 410
-55 144 4 172 7 264 30 365 93 673 354 821 694 34 78 62 159 70 201 3 13 10
49 17 79 18 82 15 327 -6 435 -71 370 -296 673 -636 858 -67 36 -218 93 -273
103 -18 3 -52 10 -77 15 -56 13 -298 19 -365 8z m345 -193 c14 -3 34 -8 45
-10 96 -18 254 -91 363 -167 208 -143 377 -413 418 -664 10 -63 11 -286 2
-342 -60 -355 -300 -653 -632 -787 -143 -58 -205 -70 -371 -70 -175 -1 -219 5
-337 44 -339 113 -589 381 -677 725 -11 44 -23 103 -26 130 -6 61 -6 216 0
267 9 80 49 207 95 303 103 214 264 377 485 488 63 31 199 74 262 83 26 3 50
8 52 10 7 6 292 -3 321 -10z"/>
<path d="M1116 2058 c-33 -4 -86 -15 -118 -23 -69 -17 -229 -94 -273 -130
l-30 -24 35 -1 c122 -4 1001 -2 1006 2 8 8 -81 65 -164 104 -130 62 -315 91
-456 72z"/>
<path d="M1876 1230 c0 -286 3 -522 6 -525 7 -8 71 92 103 161 122 266 97 585
-65 824 -22 33 -42 60 -43 60 -1 0 -2 -234 -1 -520z"/>
<path d="M513 1677 c-54 -81 -66 -106 -96 -202 -71 -227 -47 -466 68 -670 19
-33 44 -73 57 -88 l23 -28 -1 520 c0 287 -3 523 -5 525 -3 3 -23 -23 -46 -57z"/>
<path d="M750 1478 c0 -116 2 -209 4 -207 2 2 6 22 9 45 8 59 47 140 96 202
67 84 174 144 291 165 14 2 -71 5 -187 6 l-213 1 0 -212z"/>
<path d="M1333 1675 c168 -46 296 -174 342 -342 12 -44 13 -32 14 155 l1 202
-202 -1 c-187 -1 -199 -2 -155 -14z"/>
<path d="M1105 1476 c-101 -49 -155 -127 -162 -236 -8 -116 41 -206 146 -268
40 -24 57 -27 131 -27 79 0 90 3 140 33 154 93 186 293 69 426 -58 65 -107 88
-199 93 -64 3 -82 1 -125 -21z m174 -144 c37 -19 71 -72 71 -112 0 -14 -8 -41
-18 -59 -50 -94 -189 -90 -229 7 -27 65 0 141 60 167 43 19 75 18 116 -3z"/>
<path d="M751 958 l-1 -208 203 1 202 1 -63 18 c-164 49 -288 178 -328 343
-11 47 -12 32 -13 -155z"/>
<path d="M1675 1113 c-13 -71 -65 -164 -125 -222 -70 -68 -139 -108 -223 -126
-59 -13 -53 -13 151 -14 l212 -1 0 200 c0 110 -2 200 -4 200 -2 0 -7 -17 -11
-37z"/>
<path d="M730 560 l-35 -6 59 -38 c82 -53 210 -109 278 -121 169 -30 311 -23
448 21 65 22 200 90 235 119 26 22 28 25 10 26 -104 4 -968 3 -995 -1z"/>
</g>
</svg>
